<?xml version="1.0" encoding="utf-8"?>
<!-- Generator: Adobe Illustrator 15.0.0, SVG Export Plug-In . SVG Version: 6.00 Build 0)  -->
<!DOCTYPE svg PUBLIC "-//W3C//DTD SVG 1.1//EN" "http://www.w3.org/Graphics/SVG/1.1/DTD/svg11.dtd">
<svg version="1.1" id="Layer_1" xmlns="http://www.w3.org/2000/svg" xmlns:xlink="http://www.w3.org/1999/xlink" x="0px" y="0px"
	 width="841.891px" height="595.281px" viewBox="0 0 841.891 595.281" enable-background="new 0 0 841.891 595.281"
	 xml:space="preserve">
<g>
	<g>
		<g>
			<defs>
				<path id="SVGID_1_" d="M122.84,136.263c0-15.347,12.557-27.903,27.904-27.903h539.473c15.347,0,27.903,12.557,27.903,27.903
					v316.243c0,15.347-12.557,27.903-27.903,27.903H150.743c-15.347,0-27.903-12.557-27.903-27.903V136.263L122.84,136.263z"/>
			</defs>
			<clipPath id="SVGID_2_">
				<use xlink:href="#SVGID_1_"  overflow="visible"/>
			</clipPath>
			<path clip-path="url(#SVGID_2_)" fill="#FFFFFF" d="M122.84,136.263c0-15.347,12.557-27.903,27.904-27.903h539.473
				c15.347,0,27.903,12.557,27.903,27.903v316.243c0,15.347-12.557,27.903-27.903,27.903H150.743
				c-15.347,0-27.903-12.557-27.903-27.903V136.263L122.84,136.263z"/>
		</g>
	</g>
</g>
<g>
	<g>
		<defs>
			<path id="SVGID_3_" d="M711.609,337.635h-29.764c-2.791,0-5.116,0-6.511,1.396c-1.86,0.93-2.325,2.79-2.325,5.115
				c0,2.791,1.395,4.186,3.72,5.116c1.86,0.465,3.721,0.93,6.046,0.93h8.837c8.836,0.466,14.882,1.86,18.603,5.581
				c0.465,0.465,0.93,0.93,1.395,1.86V337.635L711.609,337.635z M711.609,382.747c-4.186,6.046-11.626,8.836-22.323,8.836h-31.624
				v-14.882h31.624c3.256,0,5.116-0.465,6.511-1.86c0.931-0.93,1.86-2.325,1.86-4.65c0-1.86-0.93-3.721-1.86-4.65
				c-1.395-0.931-2.79-1.396-5.58-1.396c-15.348-0.465-34.415,0.465-34.415-21.393c0-9.767,6.511-20.463,23.253-20.463h32.555
				v-13.487h-30.229c-9.302,0-15.813,2.325-20.463,5.581v-5.581h-44.646c-6.976,0-15.347,1.86-19.532,5.581v-5.581h-79.991v5.581
				c-6.511-4.65-17.207-5.581-21.857-5.581h-53.018v5.581c-5.115-4.65-16.277-5.581-23.253-5.581h-58.599l-13.486,15.348
				l-12.557-14.417h-88.362v95.338h86.502l13.952-14.882l13.021,14.882h53.482v-22.323h5.115c6.977,0,15.348,0,22.788-3.256v25.579
				h44.182v-24.648h2.325c2.79,0,2.79,0,2.79,2.79v21.858h133.474c8.371,0,17.207-2.325,22.322-6.046v6.046h42.321
				c8.836,0,17.207-1.396,24.183-4.186v-18.138H711.609z M646.036,355.308c3.255,3.255,5.115,7.44,5.115,14.417
				c0,14.882-9.302,21.393-25.578,21.393h-32.09v-14.417h31.624c3.256,0,5.116-0.465,6.512-1.86c0.93-0.93,1.859-2.325,1.859-4.65
				c0-1.86-0.93-3.721-1.859-4.65c-1.396-0.931-2.791-1.396-6.046-1.396c-15.348-0.465-34.415,0.465-34.415-21.393
				c0-9.767,6.046-20.463,23.253-20.463h32.555v14.417h-29.764c-3.256,0-5.116,0-6.511,1.396c-1.86,0.93-2.326,2.79-2.326,5.115
				c0,2.79,1.396,4.186,3.721,5.115c1.86,0.466,3.721,0.931,6.511,0.931h8.837C636.734,350.192,642.315,351.588,646.036,355.308z
				 M498.61,351.123c-2.325,1.395-5.115,1.395-7.905,1.395h-19.998v-15.347h19.998c2.79,0,6.046,0,7.905,1.396
				c2.326,0.93,3.256,3.255,3.256,6.046C502.331,347.402,500.936,349.727,498.61,351.123z M508.842,359.494
				c3.721,1.396,6.512,3.721,7.906,5.581c2.325,3.255,2.791,6.511,2.791,12.557v13.486h-16.277v-8.371
				c0-4.186,0.465-10.231-2.791-13.487c-2.325-2.325-6.046-3.255-12.091-3.255h-17.673v25.113h-16.277v-67.899h37.67
				c8.371,0,14.417,0.466,19.533,3.256c5.115,3.255,8.371,7.44,8.371,15.347C520.004,352.517,513.027,358.098,508.842,359.494z
				 M529.304,323.219h54.412v14.417h-38.135v12.557h37.205v13.952h-37.205v13.487h38.135v14.417h-54.412V323.219z M419.085,354.844
				h-21.393v-17.208h21.393c6.046,0,9.767,2.325,9.767,8.371C429.316,351.588,425.131,354.844,419.085,354.844z M381.415,385.537
				l-25.113-27.903l25.113-26.974V385.537z M316.771,377.166h-39.996v-13.486h35.811v-13.952h-35.811v-12.557h40.926l17.673,19.998
				L316.771,377.166z M446.523,345.542c0,19.067-13.951,22.788-28.369,22.788h-20.462v22.788h-31.625L346.07,368.33l-20.928,22.788
				h-64.645v-67.899h65.574l19.998,22.323l20.928-22.323h52.087C432.106,323.219,446.523,326.939,446.523,345.542z"/>
		</defs>
		<clipPath id="SVGID_4_">
			<use xlink:href="#SVGID_3_"  overflow="visible"/>
		</clipPath>
		<rect x="222.363" y="286.478" clip-path="url(#SVGID_4_)" width="512.499" height="141.845"/>
	</g>
</g>
<g>
	<g>
		<g>
			<defs>
				<path id="SVGID_5_" d="M182.368,244.158l-11.162-27.438l-11.161,27.438H182.368z M428.851,233.462
					c-2.325,1.395-5.116,1.395-7.906,1.395h-19.998V219.51h19.998c2.79,0,6.046,0,7.906,1.396c2.325,0.93,3.255,3.255,3.255,6.046
					C432.106,230.206,430.712,232.531,428.851,233.462z M570.695,244.158l-11.161-27.438l-11.162,27.438H570.695z M306.54,273.922
					h-16.742V220.44l-23.719,53.481h-14.417l-23.718-53.481v53.481h-33.02l-6.511-15.347h-33.95l-6.511,15.347h-17.672
					l29.299-68.364h24.183l27.904,64.645v-64.645h26.509l21.393,46.507l19.532-46.507h26.974v68.364H306.54z M373.044,273.922
					h-54.413v-68.364h54.413v14.417h-38.136v12.092h37.205v13.952h-37.205v13.486h38.136V273.922z M450.244,223.695
					c0,10.696-7.44,16.742-11.626,18.138c3.72,1.396,6.511,3.721,7.905,5.581c2.325,3.255,2.791,6.511,2.791,12.557v13.486h-16.277
					v-8.836c0-4.186,0.465-10.231-2.791-13.487c-2.325-2.325-6.045-2.79-12.092-2.79h-17.672v24.648h-16.277v-67.435h37.67
					c8.371,0,14.417,0.466,19.998,3.256C446.989,211.603,450.244,216.255,450.244,223.695z M459.546,273.922h16.742v-68.364h-16.742
					V273.922z M669.754,273.922h-23.253l-31.159-51.156v51.156h-33.484l-6.512-15.347h-33.484l-6.046,15.347h-19.067
					c-7.906,0-18.138-1.86-23.718-7.44c-5.581-6.046-8.837-13.487-8.837-26.044c0-10.231,1.86-19.532,8.837-26.509
					c5.115-5.58,13.486-7.905,24.648-7.905h15.812v14.417h-15.347c-6.046,0-9.302,0.93-12.557,4.186
					c-2.79,2.79-4.65,8.371-4.65,15.347c0,7.441,1.395,12.557,4.65,16.277c2.325,2.79,6.976,3.721,11.161,3.721h7.441l23.253-53.947
					h24.648l27.438,64.644v-65.109h25.113l28.834,47.437v-47.437h16.742v68.364H669.754z M129.815,287.409h27.904l6.511-15.348
					h13.952l6.046,15.348h55.342v-11.627l5.116,11.627h28.368l4.651-11.627v11.627h136.729v-25.113h2.79
					c1.86,0,2.325,0.465,2.325,3.255v21.858h70.689v-6.046c5.581,3.255,14.417,6.046,26.044,6.046h29.764l6.511-15.348h13.952
					l6.046,15.348h57.203v-14.417l8.836,14.417h46.041v-95.338h-45.576v11.161l-6.511-11.161h-46.506v11.161l-6.046-11.161h-62.784
					c-10.696,0-19.997,1.396-27.438,5.581v-5.581h-43.251v5.581c-4.65-4.186-11.161-5.581-18.603-5.581H269.335l-10.696,24.648
					l-10.697-24.648h-50.227v11.161l-5.581-11.161h-42.785l-19.533,45.111V287.409z"/>
			</defs>
			<clipPath id="SVGID_6_">
				<use xlink:href="#SVGID_5_"  overflow="visible"/>
			</clipPath>
			<rect x="106.562" y="168.818" clip-path="url(#SVGID_6_)" width="600.861" height="141.844"/>
		</g>
	</g>
	<rect x="459.546" y="205.557" fill="#FFFFFF" width="16.742" height="68.364"/>
</g>
</svg>
