<?xml version="1.0" encoding="utf-8"?>
<!-- Generator: Adobe Illustrator 15.0.0, SVG Export Plug-In . SVG Version: 6.00 Build 0)  -->
<!DOCTYPE svg PUBLIC "-//W3C//DTD SVG 1.1//EN" "http://www.w3.org/Graphics/SVG/1.1/DTD/svg11.dtd">
<svg version="1.1" id="Calque_1" xmlns="http://www.w3.org/2000/svg" xmlns:xlink="http://www.w3.org/1999/xlink" x="0px" y="0px"
	 width="841.891px" height="595.281px" viewBox="0 0 841.891 595.281" enable-background="new 0 0 841.891 595.281"
	 xml:space="preserve">
<path fill="#FFFFFF" d="M755.79,296.942c-44.064-0.232-51.389-1.046-63.364,5.813v-5.813c-52.668,0-62.202-1.977-75.457,6.047
	v-6.047H526.05v5.931c-13.255-7.558-24.881-5.931-88.014-5.931v6.512c-7.324-4.302-16.858-6.512-28.253-6.512h-67.434
	c-4.069,4.419-14.533,15.929-18.254,19.998c-14.766-16.394-12.208-13.486-18.021-19.998h-96.616v107.313h95.338
	c3.837-4.069,14.998-16.16,18.719-20.229c14.766,16.626,11.976,13.603,17.904,20.229h56.854c0-17.091,0.116-9.649,0.116-26.74
	c13.37,0.232,28.253-0.233,39.879-7.209c0,16.161-0.116,19.882-0.116,33.949h46.042c0-21.509,0.116-8.604,0.116-29.415
	c7.208,0,8.952,0,10.929,0.116c0.116,1.512,0,0,0,29.299c177.653,0,169.632,1.279,182.188-5.231v5.231
	c40.46,0,63.713,2.559,78.479-7.092v105.104c0,30.811-24.997,55.808-55.808,55.808H141.907c-30.811,0-55.808-24.997-55.808-55.808
	V265.434h30.927c4.884-11.742,2.558-6.162,7.441-17.788h22.323c4.883,11.626,2.558,6.046,7.44,17.788h61.505V252.18
	c2.558,5.813,1.278,2.906,5.93,13.254h34.298c2.791-6.395,3.023-6.743,5.93-13.254v13.254h157.54v-29.183
	c7.441,0,9.302-0.116,11.395,0.232c0,0-0.232,12.673,0.116,28.834h77.316V254.97c8.604,6.859,20.23,10.348,34.531,10.348h31.159
	c4.883-11.742,2.558-6.162,7.44-17.788h22.091c7.558,17.439,0.232,0.581,7.674,17.788h61.388v-25.462
	c13.72,22.904,9.069,14.998,15.348,25.462h48.366V158.354h-46.39v21.393c-14.185-23.485-7.325-12.092-13.022-21.393h-50.343v23.95
	c-7.208-16.975-5.349-12.557-10.231-23.95h-37.67c-0.465,0-2.674,0.232-2.674-0.35h-32.09c-14.882,0-26.857,3.721-35.693,10.813
	v-10.813h-46.39v6.162c-12.557-7.092-24.067-5.929-74.876-6.162c-0.116,0-13.486-0.116-13.486,0H253.638
	c-2.906,7.093-7.906,19.068-14.649,34.88c-3.256-6.976-12.789-27.671-16.161-34.88h-53.482v24.532
	c-8.604-20.229-5.464-12.789-10.464-24.532h-46.157c-3.953,9.186-15.929,37.205-26.857,62.668V93.012
	c0-30.811,24.997-55.808,55.808-55.808H699.75c30.811,0,55.808,24.997,55.808,55.808v203.93H755.79z M538.839,203.232
	c-0.349,0.232-1.628,2.558-1.628,8.837c0,6.976,1.047,8.952,1.279,9.185c0.232,0.116,1.278,0.581,3.953,0.581l8.487-19.648
	c-1.279,0-2.442-0.116-3.604-0.116C540.815,202.07,539.187,202.884,538.839,203.232z M515.702,355.425
	c10.696,3.837,12.789,11.045,12.789,21.393l-0.116,16.045h-19.301l0.117-13.371c0-13.719-4.419-16.044-17.208-16.044H471.52
	l-0.116,29.415h-19.3l0.116-80.572h45.809c15.114,0,31.508,2.674,31.508,21.742C529.421,342.868,524.654,351.82,515.702,355.425z
	 M508.377,337.519c0-7.44-6.511-8.604-12.44-8.604H471.52v18.138h24.067C502.098,347.053,508.377,345.542,508.377,337.519z
	 M719.632,329.264h34.996V312.29h-38.252c-14.882,0-27.671,7.674-27.671,24.067c0,38.367,49.646,14.882,49.646,31.856
	c0,5.93-4.999,7.441-9.767,7.441h-37.205l-0.116,17.207h37.205c9.767,0,20.463-2.093,26.16-10.348v-29.997
	c-12.208-16.044-45.692-1.511-45.692-15.695C708.935,330.079,714.283,329.264,719.632,329.264z M604.296,328.916V312.29h-64.179
	l-0.116,80.572h64.179l0.116-16.626l-44.878-0.349v-16.045h44.064v-16.394h-43.948v-14.533H604.296L604.296,328.916z
	 M653.36,375.539h-37.438l-0.116,17.207h37.438c17.207,0,30.462-6.511,30.462-25.578c0-38.601-49.878-13.022-49.878-30.578
	c0-6.511,5.696-7.441,10.696-7.441h35.345v-16.975h-38.601c-14.882,0-27.322,7.674-27.322,24.067
	c0,38.367,49.646,14.533,49.646,31.856C663.475,374.376,658.127,375.539,653.36,375.539z M562.556,191.024
	c-20.229-0.349-38.6-4.767-38.6,22.904c0,13.72,3.255,23.138,18.719,23.138h8.604l27.322-63.365h28.834l32.438,76.038v-76.038
	h29.415l33.833,55.924v-55.924h19.649v80.224h-27.439l-36.274-60.342v60.342h-39.182l-7.674-17.789h-39.879l-7.441,17.789h-22.322
	c-26.509,0-38.368-13.72-38.368-39.53c0-27.09,12.208-41.042,39.53-41.042h18.719v17.672H562.556z M579.182,219.51h26.509
	l-13.021-32.089L579.182,219.51L579.182,219.51z M494.774,173.469h-19.649v80.572h19.649V173.469z M450.476,216.836
	c11.046,3.837,12.789,10.696,12.789,21.393v15.696h-19.3c-0.349-17.208,4.186-29.183-17.207-29.183H405.83v29.183h-19.067v-80.572
	l45.46,0.349c15.464,0,31.857,2.325,31.857,21.393C464.196,204.395,459.08,213.347,450.476,216.836L450.476,216.836z
	 M442.686,199.047c0-7.44-6.511-8.604-12.44-8.604H405.83v17.789h24.067C436.525,208.232,442.686,206.72,442.686,199.047
	L442.686,199.047z M373.509,190.443v-16.975h-64.527v80.572h64.527v-16.626h-45.228V221.37h43.948v-16.394h-43.948v-14.533H373.509
	L373.509,190.443z M275.147,254.041v-63.017l-27.903,63.017h-16.975l-27.904-63.017v63.017h-39.298l-7.44-17.789h-40.112
	l-7.44,17.789H87.262l34.531-80.572h28.484l32.671,76.387v-76.387h31.508l25.229,54.645l22.904-54.645h32.09v80.572H275.147
	L275.147,254.041z M148.767,219.51l-13.371-32.089l-13.021,32.089H148.767z M442.92,338.682c0,32.438-35.346,27.09-57.319,27.09
	l-0.116,27.09h-37.438l-23.719-26.741l-24.765,26.741h-76.037l0.116-80.572h77.316l23.834,26.509l24.416-26.509h61.272
	C428.619,312.29,442.92,318.568,442.92,338.682z M311.887,352.401l-20.812-23.485h-48.482v14.533h42.204v16.394h-42.204v16.045
	h47.204L311.887,352.401L311.887,352.401z M366.3,320.893l-29.415,31.857l29.415,32.67V320.893z M422.457,338.682
	c0-7.093-5.349-9.767-11.859-9.767H385.6v20.463h24.648C417.108,349.379,422.457,346.123,422.457,338.682z"/>
</svg>
