<?xml version="1.0" encoding="utf-8"?>
<!-- Generator: Adobe Illustrator 15.0.0, SVG Export Plug-In . SVG Version: 6.00 Build 0)  -->
<!DOCTYPE svg PUBLIC "-//W3C//DTD SVG 1.1//EN" "http://www.w3.org/Graphics/SVG/1.1/DTD/svg11.dtd">
<svg version="1.1" id="Calque_1" xmlns="http://www.w3.org/2000/svg" xmlns:xlink="http://www.w3.org/1999/xlink" x="0px" y="0px"
	 width="841.891px" height="595.281px" viewBox="0 0 841.891 595.281" enable-background="new 0 0 841.891 595.281"
	 xml:space="preserve">
<path fill="#FFFFFF" d="M632.665,268.923c0,0,8.836,43.251,10.813,52.319h-38.832c3.836-10.348,18.603-50.575,18.603-50.575
	c-0.233,0.349,3.836-10.58,6.162-17.324L632.665,268.923L632.665,268.923z M755.79,93.012v409.256
	c0,30.811-24.997,55.808-55.808,55.808H141.907c-30.811,0-55.808-24.997-55.808-55.808V93.012c0-30.811,24.997-55.808,55.808-55.808
	h558.075C730.793,37.205,755.79,62.202,755.79,93.012z M263.405,385.072l73.479-180.444h-49.413L241.779,327.87l-4.999-24.997
	l-16.277-83.015c-2.674-11.51-10.929-14.766-21.16-15.23h-75.224l-0.814,3.604c18.37,4.65,34.764,11.394,49.064,19.881
	l41.623,156.959H263.405z M373.16,385.304l29.299-180.677h-46.739l-29.183,180.677H373.16L373.16,385.304z M535.815,326.242
	c0.233-20.579-12.324-36.275-39.182-49.181c-16.393-8.255-26.392-13.836-26.392-22.323c0.232-7.674,8.487-15.579,26.857-15.579
	c15.23-0.35,26.392,3.255,34.763,6.859l4.186,1.977l6.396-39.065c-9.186-3.604-23.835-7.674-41.856-7.674
	c-46.157,0-78.596,24.648-78.828,59.761c-0.349,25.928,23.254,40.345,40.926,49.064c18.021,8.836,24.184,14.649,24.184,22.439
	c-0.232,12.092-14.649,17.672-28.021,17.672c-18.603,0-28.602-2.906-43.832-9.649l-6.162-2.907l-6.511,40.577
	c10.929,4.999,31.159,9.417,52.087,9.65C503.494,387.979,535.467,363.679,535.815,326.242L535.815,326.242z M699.982,385.304
	l-37.67-180.677h-36.158c-11.161,0-19.648,3.255-24.416,14.998l-69.41,165.679h49.063c0,0,8.022-22.323,9.767-27.09h59.993
	c1.396,6.395,5.581,27.09,5.581,27.09H699.982z"/>
</svg>
