<?xml version="1.0" encoding="utf-8"?>
<!-- Generator: Adobe Illustrator 15.0.0, SVG Export Plug-In . SVG Version: 6.00 Build 0)  -->
<!DOCTYPE svg PUBLIC "-//W3C//DTD SVG 1.1//EN" "http://www.w3.org/Graphics/SVG/1.1/DTD/svg11.dtd">
<svg version="1.1" id="Calque_1" xmlns="http://www.w3.org/2000/svg" xmlns:xlink="http://www.w3.org/1999/xlink" x="0px" y="0px"
	 width="841.891px" height="595.281px" viewBox="0 0 841.891 595.281" enable-background="new 0 0 841.891 595.281"
	 xml:space="preserve">
<path fill="#FFFFFF" d="M182.6,246.599c0,9.186-3.721,18.021-10.348,24.067c-5.697,5.115-13.487,7.44-25.462,7.44h-4.884v-63.016
	h4.884c11.975,0,19.416,1.977,25.462,7.674C178.88,228.578,182.6,237.415,182.6,246.599z M673.01,213.928h-5.697v28.95h5.464
	c11.976,0,18.37-5.115,18.37-14.882C691.146,218.812,684.752,213.928,673.01,213.928L673.01,213.928z M755.79,93.012v409.256
	c0,30.811-24.997,55.808-55.808,55.808H141.907c-30.811,0-55.808-24.997-55.808-55.808V93.012c0-30.811,24.997-55.808,55.808-55.808
	h558.075C730.793,37.205,755.79,62.202,755.79,93.012z M583.717,294.152h52.669v-16.045h-34.066v-25.811h32.903v-16.045h-32.903
	v-21.16h34.066v-16.277h-52.669V294.152z M483.496,198.814l40.693,97.896h9.999l41.274-97.896h-20.347l-25.812,64.179
	l-25.462-64.179H483.496z M386.995,247.18c0,28.602,23.138,51.855,51.855,51.855c28.601,0,51.854-23.138,51.854-51.855
	c0-28.601-23.137-51.854-51.854-51.854C410.249,195.326,386.995,218.464,386.995,247.18z M307.934,246.599
	c0,37.786,39.065,61.04,73.597,44.414v-22.091c-22.439,22.439-54.412,6.743-54.412-22.323c0-27.555,31.042-45.46,54.412-22.09
	v-22.091C346.419,184.978,307.934,210.325,307.934,246.599z M268.52,279.503c-8.836,0-16.044-4.302-20.347-12.557l-11.975,11.511
	c20.695,30.345,65.806,21.16,65.806-13.139c0-15.23-6.278-22.09-27.438-29.764c-11.161-3.953-14.301-6.859-14.301-11.976
	c0-10.115,16.858-16.394,28.95-2.906l9.767-12.557c-22.207-19.882-57.784-10.348-57.784,16.626c0,13.138,6.046,19.997,23.485,26.392
	C294.564,261.714,281.775,279.503,268.52,279.503L268.52,279.503z M201.784,246.599c0-28.02-20.928-47.785-51.273-47.785h-27.206
	v95.338h27.206C186.437,294.152,201.784,268.109,201.784,246.599L201.784,246.599z M228.99,198.814h-18.603v95.338h18.603V198.814z
	 M718.586,334.845C679.869,359.029,455.36,479.48,234.92,520.871h466.226c9.534,0,17.44-7.906,17.44-17.44V334.845z
	 M718.586,294.152l-30.113-40.111c14.068-2.907,21.741-12.324,21.741-26.974c0-33.136-35.228-28.369-61.504-28.369v95.338h18.603
	v-38.135h2.558l25.811,38.135h22.905V294.152z"/>
</svg>
