<?xml version="1.0" encoding="utf-8"?>
<!-- Generator: Adobe Illustrator 15.0.0, SVG Export Plug-In . SVG Version: 6.00 Build 0)  -->
<!DOCTYPE svg PUBLIC "-//W3C//DTD SVG 1.1//EN" "http://www.w3.org/Graphics/SVG/1.1/DTD/svg11.dtd">
<svg version="1.1" id="Calque_1" xmlns="http://www.w3.org/2000/svg" xmlns:xlink="http://www.w3.org/1999/xlink" x="0px" y="0px"
	 width="841.891px" height="595.281px" viewBox="0 0 841.891 595.281" enable-background="new 0 0 841.891 595.281"
	 xml:space="preserve">
<path fill="#FFFFFF" d="M302.703,300.198c0,14.185-11.278,24.997-25.579,24.997c-10.696,0-18.603-6.046-18.603-17.439
	c0-14.185,11.046-25.579,25.23-25.579C294.564,282.177,302.703,288.804,302.703,300.198z M179.693,243.809h-5.464
	c-1.744,0-3.488,1.162-3.721,3.139l-4.999,31.043l9.533-0.349c12.789,0,22.672-1.744,24.997-16.51
	C202.715,245.553,192.832,243.809,179.693,243.809z M509.888,243.809h-5.232c-2.093,0-3.487,1.162-3.72,3.139l-4.884,31.043
	l9.302-0.349c15.114,0,25.578-3.488,25.578-20.928C530.816,244.39,519.771,243.809,509.888,243.809L509.888,243.809z M755.79,93.012
	v409.256c0,30.811-24.997,55.808-55.808,55.808H141.907c-30.811,0-55.808-24.997-55.808-55.808V93.012
	c0-30.811,24.997-55.808,55.808-55.808h558.075C730.793,37.205,755.79,62.202,755.79,93.012z M235.268,250.436
	c0-24.416-18.835-32.555-40.344-32.555h-46.507c-2.906,0-5.813,2.325-6.046,5.465l-19.067,118.707
	c-0.349,2.326,1.396,4.651,3.721,4.651h22.091c3.139,0,6.046-3.372,6.395-6.628l5.231-30.926c1.163-8.372,15.348-5.465,20.928-5.465
	C214.922,303.686,235.268,283.921,235.268,250.436L235.268,250.436z M333.164,260.668h-22.09c-4.418,0-4.65,6.395-4.884,9.534
	c-6.743-9.883-16.51-11.627-27.555-11.627c-28.485,0-50.227,24.997-50.227,52.552c0,22.672,14.185,37.438,36.856,37.438
	c10.464,0,23.485-5.697,30.811-13.836c-0.582,1.744-1.163,5.465-1.163,7.208c0,2.675,1.163,4.651,3.721,4.651h19.997
	c3.14,0,5.813-3.372,6.396-6.628l11.858-74.759C337.233,262.993,335.49,260.668,333.164,260.668L333.164,260.668z M380.252,374.492
	l74.062-107.662c0.581-0.581,0.581-1.163,0.581-1.977c0-1.977-1.743-4.069-3.72-4.069h-22.323c-1.977,0-4.069,1.163-5.232,2.906
	l-30.811,45.344l-12.789-43.6c-0.93-2.558-3.488-4.65-6.395-4.65h-21.742c-1.976,0-3.72,2.093-3.72,4.069
	c0,1.396,22.672,66.039,24.648,72.201c-3.14,4.418-23.835,33.252-23.835,36.74c0,2.093,1.744,3.721,3.721,3.721h22.323
	C377.113,377.398,379.09,376.236,380.252,374.492z M565.464,250.436c0-24.416-18.835-32.555-40.345-32.555h-46.157
	c-3.14,0-6.046,2.325-6.395,5.465l-18.835,118.591c-0.232,2.325,1.511,4.651,3.721,4.651h23.834c2.325,0,4.069-1.744,4.65-3.721
	l5.232-33.717c1.162-8.372,15.347-5.465,20.928-5.465C545.117,303.686,565.464,283.921,565.464,250.436L565.464,250.436z
	 M663.359,260.668h-22.091c-4.418,0-4.65,6.395-4.999,9.534c-6.395-9.883-16.277-11.627-27.555-11.627
	c-28.485,0-50.228,24.997-50.228,52.552c0,22.672,14.185,37.438,36.856,37.438c10.813,0,23.835-5.697,30.811-13.836
	c-0.349,1.744-1.163,5.465-1.163,7.208c0,2.675,1.163,4.651,3.721,4.651h20.114c3.139,0,5.813-3.372,6.395-6.628l11.859-74.759
	C667.428,262.993,665.684,260.668,663.359,260.668L663.359,260.668z M718.586,221.951c0-2.325-1.744-4.069-3.721-4.069h-21.51
	c-1.744,0-3.487,1.396-3.721,3.14L670.8,341.937l-0.349,0.582c0,2.093,1.744,4.069,4.069,4.069h19.185
	c2.906,0,5.813-3.372,6.045-6.628L718.586,222.3V221.951L718.586,221.951z M613.946,282.177c-14.185,0-25.229,11.278-25.229,25.579
	c0,11.277,8.139,17.439,18.835,17.439c13.952,0,25.229-10.696,25.229-24.997C632.897,288.804,624.759,282.177,613.946,282.177z"/>
</svg>
