<?xml version="1.0" encoding="utf-8"?>
<!-- Generator: Adobe Illustrator 15.0.0, SVG Export Plug-In . SVG Version: 6.00 Build 0)  -->
<!DOCTYPE svg PUBLIC "-//W3C//DTD SVG 1.1//EN" "http://www.w3.org/Graphics/SVG/1.1/DTD/svg11.dtd">
<svg version="1.1" id="Calque_1" xmlns="http://www.w3.org/2000/svg" xmlns:xlink="http://www.w3.org/1999/xlink" x="0px" y="0px"
	 width="841.891px" height="595.281px" viewBox="0 0 841.891 595.281" enable-background="new 0 0 841.891 595.281"
	 xml:space="preserve">
<path fill="#FFFFFF" d="M616.62,37.205H225.735c-36.043,0-65.226,29.183-65.226,65.109c-0.116,0,0-4.651,0,390.652
	c0,35.926,29.183,65.109,65.109,65.109h390.885c35.811-0.233,64.761-29.3,64.761-65.109V102.314
	C681.381,66.504,652.43,37.437,616.62,37.205L616.62,37.205z M389.553,431.695c-0.232,17.091-14.068,30.927-31.275,30.927h-96.152
	c-17.207,0.116-31.275-13.72-31.392-30.927V136.147c0-17.207,13.952-31.275,31.275-31.275h96.385
	c17.207,0,31.275,13.952,31.275,31.275v295.548H389.553z M614.062,301.477c0,17.207-13.952,31.275-31.275,31.275h-94.175
	c-17.208,0-31.275-13.952-31.275-31.275V136.263c0-17.207,13.951-31.275,31.159-31.275h94.291c17.207,0,31.275,13.952,31.275,31.275
	V301.477z"/>
</svg>
