<?xml version="1.0" encoding="utf-8"?>
<!-- Generator: Adobe Illustrator 15.0.0, SVG Export Plug-In . SVG Version: 6.00 Build 0)  -->
<!DOCTYPE svg PUBLIC "-//W3C//DTD SVG 1.1//EN" "http://www.w3.org/Graphics/SVG/1.1/DTD/svg11.dtd">
<svg version="1.1" id="Calque_1" xmlns="http://www.w3.org/2000/svg" xmlns:xlink="http://www.w3.org/1999/xlink" x="0px" y="0px"
	 width="841.891px" height="595.281px" viewBox="0 0 841.891 595.281" enable-background="new 0 0 841.891 595.281"
	 xml:space="preserve">
<path fill="#DAB33E" d="M657.394,176.393c0.378,5.288,0.378,10.577,0.378,15.865c0,161.283-122.757,347.12-347.12,347.12
	c-69.123,0-133.334-20.02-187.348-54.768c9.821,1.132,19.263,1.51,29.462,1.51c57.034,0,109.537-19.263,151.464-52.124
	c-53.636-1.134-98.584-36.261-114.07-84.608c7.555,1.132,15.108,1.888,23.041,1.888c10.954,0,21.908-1.512,32.106-4.154
	c-55.902-11.332-97.83-60.435-97.83-119.736v-1.511c16.241,9.065,35.129,14.731,55.146,15.486
	c-32.861-21.908-54.391-59.302-54.391-101.606c0-22.662,6.042-43.437,16.619-61.567c60.057,74.032,150.331,122.379,251.559,127.668
	c-1.889-9.065-3.022-18.507-3.022-27.95c0-67.234,54.392-122.002,122.003-122.002c35.127,0,66.854,14.73,89.141,38.526
	c27.572-5.287,54.013-15.486,77.432-29.461c-9.066,28.329-28.329,52.125-53.636,67.232c24.552-2.643,48.349-9.443,70.255-18.885
	C701.967,137.489,681.191,159.017,657.394,176.393L657.394,176.393z"/>
</svg>
